#!OML:ASF F:\VICON\USERDATA\INSTALL\rory3\rory3.ASF
:FULLY-SPECIFIED
:DEGREES
516
root 1.48868 28.8007 1.31588 -174.051 -19.4585 171.986
lowerback 25.383 -3.78326 -0.0486145
upperback 5.64249 -6.16198 -1.96841
thorax -8.00951 -3.38386 -0.132094
lowerneck -12.7806 -4.10695 -9.56591
upperneck -2.33688 -4.72192 9.31922
head 1.80578 -2.25157 4.11682
rclavicle 3.67255e-014 -1.88348e-014
rhumerus -5.47831 0.901661 -81.1154
rradius 94.9545
rwrist -5.71499
rhand -33.1113 -1.77681
rfingers 7.12502
rthumb -6.3217 -31.6625
lclavicle 3.67255e-014 -1.88348e-014
lhumerus -4.44707 -16.8455 79.7679
lradius 58.255
lwrist 3.43369
lhand -33.0578 10.546
lfingers 7.12502
lthumb -6.27001 40.4332
rfemur -27.527 10.2235 14.4258
rtibia 44.2734
rfoot -18.3939 -14.3951
rtoes 5.42864
lfemur -61.2144 19.0331 -30.3643
ltibia 106.215
lfoot -12.443 -9.27719
ltoes -20.0028
517
root 1.49449 28.8418 1.31178 -173.923 -19.574 172.171
lowerback 25.1999 -3.81543 0.0581709
upperback 5.61008 -6.1564 -1.9336
thorax -7.95877 -3.37784 -0.168842
lowerneck -12.6953 -4.13669 -9.48373
upperneck -2.48447 -4.78505 9.43648
head 1.75687 -2.28699 4.1381
rclavicle 6.07039e-014 1.92821e-014
rhumerus -5.56273 0.943818 -81.2053
rradius 94.6883
rwrist -6.1547
rhand -33.3316 -1.35946
rfingers 7.12502
rthumb -6.53434 -31.2387
lclavicle 6.07039e-014 1.92821e-014
lhumerus -4.39924 -16.577 79.6831
lradius 59.7295
lwrist 3.68592
lhand -33.0588 11.3472
lfingers 7.12502
lthumb -6.271 41.2344
rfemur -27.3665 10.2907 14.596
rtibia 43.61
rfoot -17.8441 -14.4805
rtoes 5.41197
lfemur -62.2183 18.7008 -30.4663
ltibia 106.796
lfoot -12.7801 -10.4642
ltoes -19.136
518
root 1.50139 28.8821 1.30767 -173.783 -19.7691 172.243
lowerback 25.0919 -3.8518 0.121012
upperback 5.5549 -6.17043 -1.92753
thorax -7.97083 -3.37901 -0.199143
lowerneck -12.7025 -4.20762 -9.53106
upperneck -2.4351 -4.87805 9.6278
head 1.78949 -2.3274 4.19809
rclavicle 1.41883e-014 -5.36719e-015
rhumerus -5.80629 0.984321 -81.2909
rradius 94.4703
rwrist -6.80466
rhand -33.8483 -0.439804
rfingers 7.12502
rthumb -7.0331 -30.303
lclavicle 1.41883e-014 -5.36719e-015
lhumerus -4.28925 -16.3757 79.6119
lradius 61.178
lwrist 3.95494
lhand -33.0699 11.6616
lfingers 7.12502
lthumb -6.28173 41.5485
rfemur -27.1834 10.2264 14.6702
rtibia 43.0067
rfoot -17.3535 -14.4527
rtoes 5.6159
lfemur -63.1522 18.2246 -30.6672
ltibia 107.269
lfoot -13.1557 -11.4537
ltoes -19.1199
519
root 1.50909 28.9212 1.30768 -173.599 -19.9267 172.383
lowerback 24.9415 -3.89298 0.214432
upperback 5.47045 -6.1688 -1.84598
thorax -7.98753 -3.36975 -0.171448
lowerneck -12.7783 -4.41296 -9.50103
upperneck -2.42115 -5.15337 9.62973
head 1.8305 -2.46447 4.17408
rclavicle -2.68608e-014 2.89729e-014
rhumerus -6.04073 1.03757 -81.2413
rradius 94.2909
rwrist -7.19332
rhand -34.0686 -0.0307102
rfingers 7.12502
rthumb -7.24583 -29.8867
lclavicle -2.68608e-014 2.89729e-014
lhumerus -4.22342 -16.0637 79.6644
lradius 62.7871
lwrist 4.3477
lhand -33.2061 11.7202
lfingers 7.12502
lthumb -6.4132 41.6031
rfemur -27.1197 10.1152 14.8002
rtibia 42.4251
rfoot -16.8352 -14.3977
rtoes 5.60065
lfemur -64.2344 17.7831 -30.8301
ltibia 107.704
lfoot -13.5303 -11.9638
ltoes -20.4516
520
root 1.51285 28.9618 1.30558 -173.552 -20.1821 172.447
lowerback 24.9379 -3.97545 0.338307
upperback 5.41924 -6.22982 -1.81922
thorax -8.05249 -3.395 -0.190798
lowerneck -12.8278 -4.15782 -9.51828
upperneck -2.24531 -4.79514 9.40327
head 1.84936 -2.28296 4.12864
rclavicle -4.63168e-014 -2.39039e-014
rhumerus -6.28616 0.995149 -81.1816
rradius 94.144
rwrist -7.40945
rhand -34.0584 0.144224
rfingers 7.12502
rthumb -7.23597 -29.7121
lclavicle -4.63168e-014 -2.39039e-014
lhumerus -4.14728 -15.8211 79.691
lradius 64.4038
lwrist 4.87808
lhand -33.4727 11.722
lfingers 7.12502
lthumb -6.67053 41.597
rfemur -26.8144 9.91508 14.8824
rtibia 41.8165
rfoot -16.3592 -14.403
rtoes 5.68063
lfemur -64.9862 17.2148 -30.9845
ltibia 108.012
lfoot -13.9084 -12.5864
ltoes -21.9774
521
root 1.51079 29.0113 1.30411 -173.713 -20.7032 172.461
lowerback 25.1956 -4.15515 0.606155
upperback 5.42728 -6.40151 -1.84533
thorax -8.20785 -3.48136 -0.295137
lowerneck -12.7258 -4.15585 -9.54299
upperneck -2.4455 -4.80027 9.50244
head 1.77832 -2.29045 4.16628
rclavicle -8.92543e-014 -4.12478e-015
rhumerus -6.52836 0.838615 -81.1267
rradius 93.9991
rwrist -7.58475
rhand -34.0998 0.365632
rfingers 7.12502
rthumb -7.27589 -29.4893
lclavicle -8.92543e-014 -4.12478e-015
lhumerus -3.91639 -15.6313 79.6887
lradius 65.9159
lwrist 5.24725
lhand -33.9958 11.752
lfingers 7.12502
lthumb -7.17551 41.6104
rfemur -26.1684 9.51564 14.9816
rtibia 41.171
rfoot -15.9148 -14.4889
rtoes 5.46271
lfemur -65.2972 16.3538 -31.0773
ltibia 108.118
lfoot -14.1552 -13.2604
ltoes -22.2813
522
root 1.51752 29.0537 1.30296 -173.696 -20.734 172.564
lowerback 25.258 -4.11558 0.639953
upperback 5.37706 -6.3345 -1.85066
thorax -8.29818 -3.44577 -0.334104
lowerneck -12.5845 -4.28115 -9.23792
upperneck -2.67347 -5.02246 9.48921
head 1.70189 -2.41332 4.10244
rclavicle -2.32578e-014 -2.79789e-014
rhumerus -6.7263 0.714652 -81.1143
rradius 93.8164
rwrist -7.65407
rhand -34.2501 0.284075
rfingers 7.12502
rthumb -7.421 -29.5658
lclavicle -2.32578e-014 -2.79789e-014
lhumerus -3.60267 -15.4189 79.6595
lradius 67.38
lwrist 5.38727
lhand -34.4032 11.9202
lfingers 7.12502
lthumb -7.56875 41.7647
rfemur -25.8856 9.55062 15.1071
rtibia 40.5339
rfoot -15.3808 -14.6366
rtoes 5.1312
lfemur -65.9195 16.0234 -31.166
ltibia 108.209
lfoot -14.2683 -14.0435
ltoes -21.2775
523
root 1.52629 29.0924 1.3015 -173.704 -20.5183 172.767
lowerback 25.331 -3.97659 0.612061
upperback 5.31111 -6.14754 -1.79318
thorax -8.39506 -3.35084 -0.307166
lowerneck -12.3869 -4.36256 -8.98954
upperneck -2.89471 -5.16986 9.23425
head 1.60339 -2.50264 3.97984
rclavicle 5.19822e-014 -1.98785e-015
rhumerus -6.93963 0.661617 -81.0276
rradius 93.6566
rwrist -7.75868
rhand -34.2802 0.106591
rfingers 7.12502
rthumb -7.45001 -29.7422
lclavicle 5.19822e-014 -1.98785e-015
lhumerus -3.29904 -15.2093 79.6837
lradius 68.9179
lwrist 5.56332
lhand -34.6384 12.1725
lfingers 7.12502
lthumb -7.79576 42.0088
rfemur -25.6828 9.70889 15.3114
rtibia 39.9129
rfoot -14.8506 -14.6537
rtoes 4.86631
lfemur -66.5964 16.0191 -31.1802
ltibia 108.288
lfoot -14.2815 -15.2598
ltoes -19.2637
524
root 1.53225 29.1294 1.29616 -173.808 -20.5823 172.894
lowerback 25.4377 -3.93435 0.69001
upperback 5.32132 -6.07342 -1.77427
thorax -8.44148 -3.31765 -0.346707
lowerneck -12.602 -4.38688 -9.17589
upperneck -2.63086 -5.1711 9.52288
head 1.73085 -2.48542 4.09224
rclavicle 8.97264e-014 -1.68967e-014
rhumerus -7.13118 0.548637 -80.9362
rradius 93.5149
rwrist -7.93627
rhand -34.2077 0.042172
rfingers 7.12502
rthumb -7.38001 -29.8091
lclavicle 8.97264e-014 -1.68967e-014
lhumerus -2.83171 -15.1197 79.6592
lradius 70.3487
lwrist 5.54404
lhand -35.142 12.3517
lfingers 7.12502
lthumb -8.28186 42.1693
rfemur -25.2744 9.66296 15.4979
rtibia 39.331
rfoot -14.3518 -14.7251
rtoes 4.65511
lfemur -67.0726 15.7113 -31.2052
ltibia 108.286
lfoot -14.2839 -16.6945
ltoes -17.7795
525
root 1.53515 29.1636 1.29286 -173.732 -20.6385 172.928
lowerback 25.3494 -3.91515 0.709465
upperback 5.2953 -6.03575 -1.77961
thorax -8.42718 -3.29727 -0.381308
lowerneck -12.5263 -4.37362 -9.33273
upperneck -2.70738 -5.14168 9.73878
head 1.70552 -2.46815 4.1881
rclavicle -1.09083e-014 -2.98177e-014
rhumerus -7.30235 0.506762 -80.8562
rradius 93.372
rwrist -8.12823
rhand -34.1802 0.140309
rfingers 7.12502
rthumb -7.35354 -29.7119
lclavicle -1.09083e-014 -2.98177e-014
lhumerus -2.33645 -15.0039 79.6284
lradius 71.8017
lwrist 5.84798
lhand -35.5402 12.4759
lfingers 7.12502
lthumb -8.66611 42.278
rfemur -25.063 9.55279 15.5384
rtibia 38.757
rfoot -13.817 -14.7002
rtoes 4.6688
lfemur -67.7106 15.3006 -31.3889
ltibia 108.215
lfoot -14.5049 -17.7191
ltoes -18.0232
526
root 1.54572 29.1971 1.29326 -173.582 -20.0226 172.979
lowerback 25.2908 -3.61328 0.37589
upperback 5.19337 -5.7171 -1.76621
thorax -8.47204 -3.13264 -0.281151
lowerneck -12.107 -4.41318 -9.12433
upperneck -3.11534 -5.23482 9.37114
head 1.50862 -2.53952 4.04671
rclavicle 8.04332e-014 1.94312e-014
rhumerus -7.4573 0.511364 -80.8297
rradius 93.1729
rwrist -8.22364
rhand -34.1794 0.219216
rfingers 7.12502
rthumb -7.3527 -29.633
lclavicle 8.04332e-014 1.94312e-014
lhumerus -1.77466 -14.8696 79.6113
lradius 73.1633
lwrist 6.36957
lhand -35.6329 12.9393
lfingers 7.12502
lthumb -8.75552 42.7377
rfemur -25.118 9.94856 15.5033
rtibia 38.1985
rfoot -13.1853 -14.5736
rtoes 4.2608
lfemur -68.4572 15.6091 -31.6162
ltibia 108.091
lfoot -14.7733 -18.505
ltoes -18.5379
